<svg xmlns="http://www.w3.org/2000/svg" version="1.1" xmlns:xlink="http://www.w3.org/1999/xlink" xmlns:svgjs="http://svgjs.dev/svgjs" width="720" height="560" preserveAspectRatio="none" viewBox="0 0 720 560"><g mask="url(&quot;#SvgjsMask1012&quot;)" fill="none"><rect width="720" height="560" x="0" y="0" fill="#0e2a47"></rect><path d="M-44.9 472.84L-44.9 472.84" stroke="#132e65" stroke-width="1.5"></path><path d="M-44.9 472.84L35 487.76" stroke="#132e65" stroke-width="1.5"></path><path d="M-44.9 472.84L55.48 420.7" stroke="#132e65" stroke-width="1.5"></path><path d="M-44.9 472.84L-59.49 593.11" stroke="#132e65" stroke-width="1.5"></path><path d="M-44.9 472.84L39.09 581.98" stroke="#132e65" stroke-width="1.5"></path><path d="M-59.49 593.11L-59.49 593.11" stroke="#132e65" stroke-width="1.5"></path><path d="M-59.49 593.11L-47.46 656.72" stroke="#132e65" stroke-width="1.5"></path><path d="M-59.49 593.11L39.09 581.98" stroke="#132e65" stroke-width="1.5"></path><path d="M-47.46 656.72L-47.46 656.72" stroke="#132e65" stroke-width="1.5"></path><path d="M55.48 420.7L55.48 420.7" stroke="#132e65" stroke-width="1.5"></path><path d="M55.48 420.7L113.53 410.49" stroke="#132e65" stroke-width="1.5"></path><path d="M55.48 420.7L35 487.76" stroke="#132e65" stroke-width="1.5"></path><path d="M35 487.76L35 487.76" stroke="#132e65" stroke-width="1.5"></path><path d="M35 487.76L125.17 494.88" stroke="#132e65" stroke-width="1.5"></path><path d="M35 487.76L39.09 581.98" stroke="#132e65" stroke-width="1.5"></path><path d="M39.09 581.98L39.09 581.98" stroke="#132e65" stroke-width="1.5"></path><path d="M39.09 581.98L136.51 573.48" stroke="#132e65" stroke-width="1.5"></path><path d="M39.09 581.98L49.14 688.14" stroke="#132e65" stroke-width="1.5"></path><path d="M39.09 581.98L-47.46 656.72" stroke="#132e65" stroke-width="1.5"></path><path d="M49.14 688.14L49.14 688.14" stroke="#132e65" stroke-width="1.5"></path><path d="M49.14 688.14L132.34 663.92" stroke="#132e65" stroke-width="1.5"></path><path d="M49.14 688.14L-47.46 656.72" stroke="#132e65" stroke-width="1.5"></path><path d="M49.14 688.14L136.51 573.48" stroke="#132e65" stroke-width="1.5"></path><path d="M153.64 331.95L153.64 331.95" stroke="#132e65" stroke-width="1.5"></path><path d="M153.64 331.95L239.82 323.47" stroke="#132e65" stroke-width="1.5"></path><path d="M153.64 331.95L113.53 410.49" stroke="#132e65" stroke-width="1.5"></path><path d="M153.64 331.95L211.22 421.91" stroke="#132e65" stroke-width="1.5"></path><path d="M113.53 410.49L113.53 410.49" stroke="#132e65" stroke-width="1.5"></path><path d="M113.53 410.49L125.17 494.88" stroke="#132e65" stroke-width="1.5"></path><path d="M113.53 410.49L211.22 421.91" stroke="#132e65" stroke-width="1.5"></path><path d="M125.17 494.88L125.17 494.88" stroke="#132e65" stroke-width="1.5"></path><path d="M125.17 494.88L136.51 573.48" stroke="#132e65" stroke-width="1.5"></path><path d="M136.51 573.48L136.51 573.48" stroke="#132e65" stroke-width="1.5"></path><path d="M136.51 573.48L211.56 607.19" stroke="#132e65" stroke-width="1.5"></path><path d="M136.51 573.48L132.34 663.92" stroke="#132e65" stroke-width="1.5"></path><path d="M136.51 573.48L219.75 484.39" stroke="#132e65" stroke-width="1.5"></path><path d="M132.34 663.92L132.34 663.92" stroke="#132e65" stroke-width="1.5"></path><path d="M132.34 663.92L211.56 607.19" stroke="#132e65" stroke-width="1.5"></path><path d="M132.34 663.92L39.09 581.98" stroke="#132e65" stroke-width="1.5"></path><path d="M239.82 323.47L239.82 323.47" stroke="#132e65" stroke-width="1.5"></path><path d="M239.82 323.47L302.29 336.05" stroke="#132e65" stroke-width="1.5"></path><path d="M211.22 421.91L211.22 421.91" stroke="#132e65" stroke-width="1.5"></path><path d="M211.22 421.91L219.75 484.39" stroke="#132e65" stroke-width="1.5"></path><path d="M211.22 421.91L239.82 323.47" stroke="#132e65" stroke-width="1.5"></path><path d="M219.75 484.39L219.75 484.39" stroke="#132e65" stroke-width="1.5"></path><path d="M219.75 484.39L306.27 506.9" stroke="#132e65" stroke-width="1.5"></path><path d="M219.75 484.39L125.17 494.88" stroke="#132e65" stroke-width="1.5"></path><path d="M219.75 484.39L294.18 564.01" stroke="#132e65" stroke-width="1.5"></path><path d="M211.56 607.19L211.56 607.19" stroke="#132e65" stroke-width="1.5"></path><path d="M211.56 607.19L294.18 564.01" stroke="#132e65" stroke-width="1.5"></path><path d="M211.56 607.19L293.89 653.87" stroke="#132e65" stroke-width="1.5"></path><path d="M211.56 607.19L219.75 484.39" stroke="#132e65" stroke-width="1.5"></path><path d="M314.1 233.72L314.1 233.72" stroke="#132e65" stroke-width="1.5"></path><path d="M314.1 233.72L389.92 214.32" stroke="#132e65" stroke-width="1.5"></path><path d="M314.1 233.72L302.29 336.05" stroke="#132e65" stroke-width="1.5"></path><path d="M302.29 336.05L302.29 336.05" stroke="#132e65" stroke-width="1.5"></path><path d="M302.29 336.05L322.98 404.65" stroke="#132e65" stroke-width="1.5"></path><path d="M302.29 336.05L407.02 392.06" stroke="#132e65" stroke-width="1.5"></path><path d="M302.29 336.05L211.22 421.91" stroke="#132e65" stroke-width="1.5"></path><path d="M322.98 404.65L322.98 404.65" stroke="#132e65" stroke-width="1.5"></path><path d="M322.98 404.65L407.02 392.06" stroke="#132e65" stroke-width="1.5"></path><path d="M322.98 404.65L306.27 506.9" stroke="#132e65" stroke-width="1.5"></path><path d="M322.98 404.65L211.22 421.91" stroke="#132e65" stroke-width="1.5"></path><path d="M306.27 506.9L306.27 506.9" stroke="#132e65" stroke-width="1.5"></path><path d="M306.27 506.9L294.18 564.01" stroke="#132e65" stroke-width="1.5"></path><path d="M306.27 506.9L403.89 488.84" stroke="#132e65" stroke-width="1.5"></path><path d="M306.27 506.9L388.92 562.63" stroke="#132e65" stroke-width="1.5"></path><path d="M294.18 564.01L294.18 564.01" stroke="#132e65" stroke-width="1.5"></path><path d="M294.18 564.01L293.89 653.87" stroke="#132e65" stroke-width="1.5"></path><path d="M294.18 564.01L388.92 562.63" stroke="#132e65" stroke-width="1.5"></path><path d="M293.89 653.87L293.89 653.87" stroke="#132e65" stroke-width="1.5"></path><path d="M293.89 653.87L414.56 691.28" stroke="#132e65" stroke-width="1.5"></path><path d="M293.89 653.87L388.92 562.63" stroke="#132e65" stroke-width="1.5"></path><path d="M396.86 149.42L396.86 149.42" stroke="#132e65" stroke-width="1.5"></path><path d="M396.86 149.42L389.92 214.32" stroke="#132e65" stroke-width="1.5"></path><path d="M396.86 149.42L473.76 134.51" stroke="#132e65" stroke-width="1.5"></path><path d="M389.92 214.32L389.92 214.32" stroke="#132e65" stroke-width="1.5"></path><path d="M389.92 214.32L500.86 204.52" stroke="#132e65" stroke-width="1.5"></path><path d="M389.92 214.32L473.76 134.51" stroke="#132e65" stroke-width="1.5"></path><path d="M407.02 392.06L407.02 392.06" stroke="#132e65" stroke-width="1.5"></path><path d="M407.02 392.06L493.25 404.6" stroke="#132e65" stroke-width="1.5"></path><path d="M407.02 392.06L403.89 488.84" stroke="#132e65" stroke-width="1.5"></path><path d="M403.89 488.84L403.89 488.84" stroke="#132e65" stroke-width="1.5"></path><path d="M403.89 488.84L388.92 562.63" stroke="#132e65" stroke-width="1.5"></path><path d="M403.89 488.84L480.3 502.2" stroke="#132e65" stroke-width="1.5"></path><path d="M388.92 562.63L388.92 562.63" stroke="#132e65" stroke-width="1.5"></path><path d="M388.92 562.63L480.3 502.2" stroke="#132e65" stroke-width="1.5"></path><path d="M414.56 691.28L414.56 691.28" stroke="#132e65" stroke-width="1.5"></path><path d="M414.56 691.28L508.84 686.85" stroke="#132e65" stroke-width="1.5"></path><path d="M500.57 -55.87L500.57 -55.87" stroke="#132e65" stroke-width="1.5"></path><path d="M500.57 -55.87L593.46 -40.41" stroke="#132e65" stroke-width="1.5"></path><path d="M500.57 -55.87L575.79 56.09" stroke="#132e65" stroke-width="1.5"></path><path d="M473.76 134.51L473.76 134.51" stroke="#132e65" stroke-width="1.5"></path><path d="M473.76 134.51L500.86 204.52" stroke="#132e65" stroke-width="1.5"></path><path d="M473.76 134.51L569.43 128.19" stroke="#132e65" stroke-width="1.5"></path><path d="M500.86 204.52L500.86 204.52" stroke="#132e65" stroke-width="1.5"></path><path d="M500.86 204.52L568.58 244.92" stroke="#132e65" stroke-width="1.5"></path><path d="M500.86 204.52L569.43 128.19" stroke="#132e65" stroke-width="1.5"></path><path d="M509.44 328.09L509.44 328.09" stroke="#132e65" stroke-width="1.5"></path><path d="M509.44 328.09L493.25 404.6" stroke="#132e65" stroke-width="1.5"></path><path d="M509.44 328.09L581.21 293.14" stroke="#132e65" stroke-width="1.5"></path><path d="M493.25 404.6L493.25 404.6" stroke="#132e65" stroke-width="1.5"></path><path d="M493.25 404.6L572.91 394.28" stroke="#132e65" stroke-width="1.5"></path><path d="M480.3 502.2L480.3 502.2" stroke="#132e65" stroke-width="1.5"></path><path d="M480.3 502.2L501.61 584.78" stroke="#132e65" stroke-width="1.5"></path><path d="M480.3 502.2L574.23 496.48" stroke="#132e65" stroke-width="1.5"></path><path d="M501.61 584.78L501.61 584.78" stroke="#132e65" stroke-width="1.5"></path><path d="M501.61 584.78L508.84 686.85" stroke="#132e65" stroke-width="1.5"></path><path d="M501.61 584.78L574.23 496.48" stroke="#132e65" stroke-width="1.5"></path><path d="M501.61 584.78L388.92 562.63" stroke="#132e65" stroke-width="1.5"></path><path d="M501.61 584.78L403.89 488.84" stroke="#132e65" stroke-width="1.5"></path><path d="M501.61 584.78L414.56 691.28" stroke="#132e65" stroke-width="1.5"></path><path d="M508.84 686.85L508.84 686.85" stroke="#132e65" stroke-width="1.5"></path><path d="M508.84 686.85L388.92 562.63" stroke="#132e65" stroke-width="1.5"></path><path d="M508.84 686.85L657.93 575.41" stroke="#132e65" stroke-width="1.5"></path><path d="M508.84 686.85L480.3 502.2" stroke="#132e65" stroke-width="1.5"></path><path d="M508.84 686.85L574.23 496.48" stroke="#132e65" stroke-width="1.5"></path><path d="M593.46 -40.41L593.46 -40.41" stroke="#132e65" stroke-width="1.5"></path><path d="M593.46 -40.41L575.79 56.09" stroke="#132e65" stroke-width="1.5"></path><path d="M593.46 -40.41L693.77 -25.26" stroke="#132e65" stroke-width="1.5"></path><path d="M593.46 -40.41L687.54 60.91" stroke="#132e65" stroke-width="1.5"></path><path d="M575.79 56.09L575.79 56.09" stroke="#132e65" stroke-width="1.5"></path><path d="M575.79 56.09L569.43 128.19" stroke="#132e65" stroke-width="1.5"></path><path d="M575.79 56.09L687.54 60.91" stroke="#132e65" stroke-width="1.5"></path><path d="M569.43 128.19L569.43 128.19" stroke="#132e65" stroke-width="1.5"></path><path d="M569.43 128.19L671.23 121.02" stroke="#132e65" stroke-width="1.5"></path><path d="M568.58 244.92L568.58 244.92" stroke="#132e65" stroke-width="1.5"></path><path d="M568.58 244.92L581.21 293.14" stroke="#132e65" stroke-width="1.5"></path><path d="M568.58 244.92L655.79 246.28" stroke="#132e65" stroke-width="1.5"></path><path d="M568.58 244.92L509.44 328.09" stroke="#132e65" stroke-width="1.5"></path><path d="M568.58 244.92L569.43 128.19" stroke="#132e65" stroke-width="1.5"></path><path d="M568.58 244.92L661.31 326.61" stroke="#132e65" stroke-width="1.5"></path><path d="M581.21 293.14L581.21 293.14" stroke="#132e65" stroke-width="1.5"></path><path d="M581.21 293.14L661.31 326.61" stroke="#132e65" stroke-width="1.5"></path><path d="M572.91 394.28L572.91 394.28" stroke="#132e65" stroke-width="1.5"></path><path d="M572.91 394.28L659.09 416.24" stroke="#132e65" stroke-width="1.5"></path><path d="M572.91 394.28L509.44 328.09" stroke="#132e65" stroke-width="1.5"></path><path d="M574.23 496.48L574.23 496.48" stroke="#132e65" stroke-width="1.5"></path><path d="M574.23 496.48L572.91 394.28" stroke="#132e65" stroke-width="1.5"></path><path d="M574.23 496.48L677.59 494.5" stroke="#132e65" stroke-width="1.5"></path><path d="M574.23 496.48L657.93 575.41" stroke="#132e65" stroke-width="1.5"></path><path d="M574.23 496.48L659.09 416.24" stroke="#132e65" stroke-width="1.5"></path><path d="M693.77 -25.26L693.77 -25.26" stroke="#132e65" stroke-width="1.5"></path><path d="M693.77 -25.26L777.46 -44.69" stroke="#132e65" stroke-width="1.5"></path><path d="M693.77 -25.26L687.54 60.91" stroke="#132e65" stroke-width="1.5"></path><path d="M693.77 -25.26L753.56 43.51" stroke="#132e65" stroke-width="1.5"></path><path d="M687.54 60.91L687.54 60.91" stroke="#132e65" stroke-width="1.5"></path><path d="M687.54 60.91L671.23 121.02" stroke="#132e65" stroke-width="1.5"></path><path d="M687.54 60.91L753.56 43.51" stroke="#132e65" stroke-width="1.5"></path><path d="M687.54 60.91L775.32 114.06" stroke="#132e65" stroke-width="1.5"></path><path d="M671.23 121.02L671.23 121.02" stroke="#132e65" stroke-width="1.5"></path><path d="M671.23 121.02L775.32 114.06" stroke="#132e65" stroke-width="1.5"></path><path d="M655.79 246.28L655.79 246.28" stroke="#132e65" stroke-width="1.5"></path><path d="M655.79 246.28L661.31 326.61" stroke="#132e65" stroke-width="1.5"></path><path d="M655.79 246.28L581.21 293.14" stroke="#132e65" stroke-width="1.5"></path><path d="M655.79 246.28L671.23 121.02" stroke="#132e65" stroke-width="1.5"></path><path d="M661.31 326.61L661.31 326.61" stroke="#132e65" stroke-width="1.5"></path><path d="M659.09 416.24L659.09 416.24" stroke="#132e65" stroke-width="1.5"></path><path d="M659.09 416.24L677.59 494.5" stroke="#132e65" stroke-width="1.5"></path><path d="M659.09 416.24L661.31 326.61" stroke="#132e65" stroke-width="1.5"></path><path d="M677.59 494.5L677.59 494.5" stroke="#132e65" stroke-width="1.5"></path><path d="M677.59 494.5L750.59 484.72" stroke="#132e65" stroke-width="1.5"></path><path d="M677.59 494.5L657.93 575.41" stroke="#132e65" stroke-width="1.5"></path><path d="M677.59 494.5L751.49 421.38" stroke="#132e65" stroke-width="1.5"></path><path d="M657.93 575.41L657.93 575.41" stroke="#132e65" stroke-width="1.5"></path><path d="M657.93 575.41L773.72 569" stroke="#132e65" stroke-width="1.5"></path><path d="M657.93 575.41L750.59 484.72" stroke="#132e65" stroke-width="1.5"></path><path d="M657.93 575.41L501.61 584.78" stroke="#132e65" stroke-width="1.5"></path><path d="M657.93 575.41L659.09 416.24" stroke="#132e65" stroke-width="1.5"></path><path d="M777.46 -44.69L777.46 -44.69" stroke="#132e65" stroke-width="1.5"></path><path d="M777.46 -44.69L753.56 43.51" stroke="#132e65" stroke-width="1.5"></path><path d="M753.56 43.51L753.56 43.51" stroke="#132e65" stroke-width="1.5"></path><path d="M753.56 43.51L775.32 114.06" stroke="#132e65" stroke-width="1.5"></path><path d="M753.56 43.51L671.23 121.02" stroke="#132e65" stroke-width="1.5"></path><path d="M775.32 114.06L775.32 114.06" stroke="#132e65" stroke-width="1.5"></path><path d="M775.32 114.06L780.57 212.62" stroke="#132e65" stroke-width="1.5"></path><path d="M780.57 212.62L780.57 212.62" stroke="#132e65" stroke-width="1.5"></path><path d="M770.38 311.69L770.38 311.69" stroke="#132e65" stroke-width="1.5"></path><path d="M770.38 311.69L780.57 212.62" stroke="#132e65" stroke-width="1.5"></path><path d="M770.38 311.69L661.31 326.61" stroke="#132e65" stroke-width="1.5"></path><path d="M770.38 311.69L751.49 421.38" stroke="#132e65" stroke-width="1.5"></path><path d="M770.38 311.69L655.79 246.28" stroke="#132e65" stroke-width="1.5"></path><path d="M770.38 311.69L659.09 416.24" stroke="#132e65" stroke-width="1.5"></path><path d="M751.49 421.38L751.49 421.38" stroke="#132e65" stroke-width="1.5"></path><path d="M751.49 421.38L750.59 484.72" stroke="#132e65" stroke-width="1.5"></path><path d="M751.49 421.38L659.09 416.24" stroke="#132e65" stroke-width="1.5"></path><path d="M750.59 484.72L750.59 484.72" stroke="#132e65" stroke-width="1.5"></path><path d="M773.72 569L773.72 569" stroke="#132e65" stroke-width="1.5"></path><path d="M773.72 569L750.59 484.72" stroke="#132e65" stroke-width="1.5"></path><path d="M773.72 569L780.07 682.75" stroke="#132e65" stroke-width="1.5"></path><path d="M773.72 569L677.59 494.5" stroke="#132e65" stroke-width="1.5"></path><path d="M773.72 569L751.49 421.38" stroke="#132e65" stroke-width="1.5"></path><path d="M780.07 682.75L780.07 682.75" stroke="#132e65" stroke-width="1.5"></path><path d="M780.07 682.75L657.93 575.41" stroke="#132e65" stroke-width="1.5"></path><path d="M780.07 682.75L750.59 484.72" stroke="#132e65" stroke-width="1.5"></path><path d="M780.07 682.75L677.59 494.5" stroke="#132e65" stroke-width="1.5"></path><path d="M780.07 682.75L751.49 421.38" stroke="#132e65" stroke-width="1.5"></path><circle r="5" cx="-44.9" cy="472.84" fill="#132e65"></circle><circle r="5" cx="-59.49" cy="593.11" fill="#132e65"></circle><circle r="5" cx="-47.46" cy="656.72" fill="#132e65"></circle><circle r="5" cx="55.48" cy="420.7" fill="#132e65"></circle><circle r="5" cx="35" cy="487.76" fill="#132e65"></circle><circle r="5" cx="39.09" cy="581.98" fill="#132e65"></circle><circle r="5" cx="49.14" cy="688.14" fill="#132e65"></circle><circle r="5" cx="153.64" cy="331.95" fill="#132e65"></circle><circle r="5" cx="113.53" cy="410.49" fill="#132e65"></circle><circle r="5" cx="125.17" cy="494.88" fill="#132e65"></circle><circle r="5" cx="136.51" cy="573.48" fill="#132e65"></circle><circle r="5" cx="132.34" cy="663.92" fill="#132e65"></circle><circle r="5" cx="239.82" cy="323.47" fill="#132e65"></circle><circle r="5" cx="211.22" cy="421.91" fill="#132e65"></circle><circle r="5" cx="219.75" cy="484.39" fill="#132e65"></circle><circle r="5" cx="211.56" cy="607.19" fill="#132e65"></circle><circle r="5" cx="314.1" cy="233.72" fill="#132e65"></circle><circle r="5" cx="302.29" cy="336.05" fill="#132e65"></circle><circle r="5" cx="322.98" cy="404.65" fill="#132e65"></circle><circle r="5" cx="306.27" cy="506.9" fill="#132e65"></circle><circle r="5" cx="294.18" cy="564.01" fill="#132e65"></circle><circle r="5" cx="293.89" cy="653.87" fill="#132e65"></circle><circle r="5" cx="396.86" cy="149.42" fill="#132e65"></circle><circle r="5" cx="389.92" cy="214.32" fill="#132e65"></circle><circle r="5" cx="407.02" cy="392.06" fill="#132e65"></circle><circle r="5" cx="403.89" cy="488.84" fill="#132e65"></circle><circle r="5" cx="388.92" cy="562.63" fill="#132e65"></circle><circle r="5" cx="414.56" cy="691.28" fill="#132e65"></circle><circle r="5" cx="500.57" cy="-55.87" fill="#132e65"></circle><circle r="5" cx="473.76" cy="134.51" fill="#132e65"></circle><circle r="5" cx="500.86" cy="204.52" fill="#132e65"></circle><circle r="5" cx="509.44" cy="328.09" fill="#132e65"></circle><circle r="5" cx="493.25" cy="404.6" fill="#132e65"></circle><circle r="5" cx="480.3" cy="502.2" fill="#132e65"></circle><circle r="5" cx="501.61" cy="584.78" fill="#132e65"></circle><circle r="5" cx="508.84" cy="686.85" fill="#132e65"></circle><circle r="5" cx="593.46" cy="-40.41" fill="#132e65"></circle><circle r="5" cx="575.79" cy="56.09" fill="#132e65"></circle><circle r="5" cx="569.43" cy="128.19" fill="#132e65"></circle><circle r="5" cx="568.58" cy="244.92" fill="#132e65"></circle><circle r="5" cx="581.21" cy="293.14" fill="#132e65"></circle><circle r="5" cx="572.91" cy="394.28" fill="#132e65"></circle><circle r="5" cx="574.23" cy="496.48" fill="#132e65"></circle><circle r="5" cx="693.77" cy="-25.26" fill="#132e65"></circle><circle r="5" cx="687.54" cy="60.91" fill="#132e65"></circle><circle r="5" cx="671.23" cy="121.02" fill="#132e65"></circle><circle r="5" cx="655.79" cy="246.28" fill="#132e65"></circle><circle r="5" cx="661.31" cy="326.61" fill="#132e65"></circle><circle r="5" cx="659.09" cy="416.24" fill="#132e65"></circle><circle r="5" cx="677.59" cy="494.5" fill="#132e65"></circle><circle r="5" cx="657.93" cy="575.41" fill="#132e65"></circle><circle r="5" cx="777.46" cy="-44.69" fill="#132e65"></circle><circle r="5" cx="753.56" cy="43.51" fill="#132e65"></circle><circle r="5" cx="775.32" cy="114.06" fill="#132e65"></circle><circle r="5" cx="780.57" cy="212.62" fill="#132e65"></circle><circle r="5" cx="770.38" cy="311.69" fill="#132e65"></circle><circle r="5" cx="751.49" cy="421.38" fill="#132e65"></circle><circle r="5" cx="750.59" cy="484.72" fill="#132e65"></circle><circle r="5" cx="773.72" cy="569" fill="#132e65"></circle><circle r="5" cx="780.07" cy="682.75" fill="#132e65"></circle><path d="M-63.73 675.92L-63.73 675.92" stroke="hsl(228.5, 77.2%, 51.5%)" stroke-width="1.5"></path><path d="M-63.73 675.92L-52.03 584.82" stroke="hsl(228.5, 77.2%, 51.5%)" stroke-width="1.5"></path><path d="M-63.73 675.92L61.39 678.69" stroke="hsl(228.5, 77.2%, 51.5%)" stroke-width="1.5"></path><path d="M28.46 567.93L28.46 567.93" stroke="hsl(228.5, 77.2%, 51.5%)" stroke-width="1.5"></path><path d="M28.46 567.93L31.73 498.44" stroke="hsl(228.5, 77.2%, 51.5%)" stroke-width="1.5"></path><path d="M28.46 567.93L-52.03 584.82" stroke="hsl(228.5, 77.2%, 51.5%)" stroke-width="1.5"></path><path d="M28.46 567.93L-27.56 491.27" stroke="hsl(228.5, 77.2%, 51.5%)" stroke-width="1.5"></path><path d="M28.46 567.93L61.39 678.69" stroke="hsl(228.5, 77.2%, 51.5%)" stroke-width="1.5"></path><path d="M28.46 567.93L132.48 505.28" stroke="hsl(228.5, 77.2%, 51.5%)" stroke-width="1.5"></path><path d="M28.46 567.93L154.2 567.81" stroke="hsl(228.5, 77.2%, 51.5%)" stroke-width="1.5"></path><path d="M210.85 669.17L210.85 669.17" stroke="hsl(228.5, 77.2%, 51.5%)" stroke-width="1.5"></path><path d="M210.85 669.17L142.61 681.09" stroke="hsl(228.5, 77.2%, 51.5%)" stroke-width="1.5"></path><path d="M210.85 669.17L221.83 594.97" stroke="hsl(228.5, 77.2%, 51.5%)" stroke-width="1.5"></path><path d="M210.85 669.17L312.37 671.98" stroke="hsl(228.5, 77.2%, 51.5%)" stroke-width="1.5"></path><path d="M210.85 669.17L154.2 567.81" stroke="hsl(228.5, 77.2%, 51.5%)" stroke-width="1.5"></path><path d="M210.85 669.17L306.33 576.01" stroke="hsl(228.5, 77.2%, 51.5%)" stroke-width="1.5"></path><path d="M210.85 669.17L61.39 678.69" stroke="hsl(228.5, 77.2%, 51.5%)" stroke-width="1.5"></path><path d="M420.3 424.19L420.3 424.19" stroke="hsl(228.5, 77.2%, 51.5%)" stroke-width="1.5"></path><path d="M420.3 424.19L410.09 502.73" stroke="hsl(228.5, 77.2%, 51.5%)" stroke-width="1.5"></path><path d="M420.3 424.19L507.06 409.21" stroke="hsl(228.5, 77.2%, 51.5%)" stroke-width="1.5"></path><path d="M420.3 424.19L308.08 423.35" stroke="hsl(228.5, 77.2%, 51.5%)" stroke-width="1.5"></path><path d="M382.8 591.86L382.8 591.86" stroke="hsl(228.5, 77.2%, 51.5%)" stroke-width="1.5"></path><path d="M382.8 591.86L306.33 576.01" stroke="hsl(228.5, 77.2%, 51.5%)" stroke-width="1.5"></path><path d="M382.8 591.86L410.09 502.73" stroke="hsl(228.5, 77.2%, 51.5%)" stroke-width="1.5"></path><path d="M382.8 591.86L485.97 589.32" stroke="hsl(228.5, 77.2%, 51.5%)" stroke-width="1.5"></path><path d="M382.8 591.86L423.48 687.77" stroke="hsl(228.5, 77.2%, 51.5%)" stroke-width="1.5"></path><path d="M382.8 591.86L312.37 671.98" stroke="hsl(228.5, 77.2%, 51.5%)" stroke-width="1.5"></path><path d="M423.48 687.77L423.48 687.77" stroke="hsl(228.5, 77.2%, 51.5%)" stroke-width="1.5"></path><path d="M423.48 687.77L479.07 680.09" stroke="hsl(228.5, 77.2%, 51.5%)" stroke-width="1.5"></path><path d="M423.48 687.77L312.37 671.98" stroke="hsl(228.5, 77.2%, 51.5%)" stroke-width="1.5"></path><path d="M423.48 687.77L485.97 589.32" stroke="hsl(228.5, 77.2%, 51.5%)" stroke-width="1.5"></path><path d="M423.48 687.77L570.81 677.63" stroke="hsl(228.5, 77.2%, 51.5%)" stroke-width="1.5"></path><path d="M512.69 301.44L512.69 301.44" stroke="hsl(228.5, 77.2%, 51.5%)" stroke-width="1.5"></path><path d="M512.69 301.44L598.42 322.11" stroke="hsl(228.5, 77.2%, 51.5%)" stroke-width="1.5"></path><path d="M512.69 301.44L574.09 225.45" stroke="hsl(228.5, 77.2%, 51.5%)" stroke-width="1.5"></path><path d="M512.69 301.44L507.06 409.21" stroke="hsl(228.5, 77.2%, 51.5%)" stroke-width="1.5"></path><path d="M512.69 301.44L581.66 423.72" stroke="hsl(228.5, 77.2%, 51.5%)" stroke-width="1.5"></path><path d="M512.69 301.44L420.3 424.19" stroke="hsl(228.5, 77.2%, 51.5%)" stroke-width="1.5"></path><path d="M512.69 301.44L680.32 295.99" stroke="hsl(228.5, 77.2%, 51.5%)" stroke-width="1.5"></path><path d="M581.66 423.72L581.66 423.72" stroke="hsl(228.5, 77.2%, 51.5%)" stroke-width="1.5"></path><path d="M581.66 423.72L566.89 488.49" stroke="hsl(228.5, 77.2%, 51.5%)" stroke-width="1.5"></path><path d="M581.66 423.72L507.06 409.21" stroke="hsl(228.5, 77.2%, 51.5%)" stroke-width="1.5"></path><path d="M581.66 423.72L598.42 322.11" stroke="hsl(228.5, 77.2%, 51.5%)" stroke-width="1.5"></path><path d="M664.35 147.31L664.35 147.31" stroke="hsl(228.5, 77.2%, 51.5%)" stroke-width="1.5"></path><path d="M664.35 147.31L693.03 232.34" stroke="hsl(228.5, 77.2%, 51.5%)" stroke-width="1.5"></path><path d="M664.35 147.31L756.97 148.83" stroke="hsl(228.5, 77.2%, 51.5%)" stroke-width="1.5"></path><path d="M664.35 147.31L670.44 51.64" stroke="hsl(228.5, 77.2%, 51.5%)" stroke-width="1.5"></path><path d="M664.35 147.31L574.09 225.45" stroke="hsl(228.5, 77.2%, 51.5%)" stroke-width="1.5"></path><path d="M664.35 147.31L601.96 43.92" stroke="hsl(228.5, 77.2%, 51.5%)" stroke-width="1.5"></path><path d="M664.35 147.31L774.04 219.86" stroke="hsl(228.5, 77.2%, 51.5%)" stroke-width="1.5"></path><path d="M756.97 148.83L756.97 148.83" stroke="hsl(228.5, 77.2%, 51.5%)" stroke-width="1.5"></path><path d="M756.97 148.83L774.04 219.86" stroke="hsl(228.5, 77.2%, 51.5%)" stroke-width="1.5"></path><path d="M756.97 148.83L693.03 232.34" stroke="hsl(228.5, 77.2%, 51.5%)" stroke-width="1.5"></path><path d="M756.97 148.83L670.44 51.64" stroke="hsl(228.5, 77.2%, 51.5%)" stroke-width="1.5"></path><path d="M783.6 681.49L783.6 681.49" stroke="hsl(228.5, 77.2%, 51.5%)" stroke-width="1.5"></path><path d="M783.6 681.49L693.12 674.12" stroke="hsl(228.5, 77.2%, 51.5%)" stroke-width="1.5"></path><path d="M783.6 681.49L786.84 489.23" stroke="hsl(228.5, 77.2%, 51.5%)" stroke-width="1.5"></path><path d="M-27.56 491.27L-27.56 491.27" stroke="hsl(228.5, 77.2%, 51.5%)" stroke-width="1.5"></path><path d="M-27.56 491.27L31.73 498.44" stroke="hsl(228.5, 77.2%, 51.5%)" stroke-width="1.5"></path><path d="M-27.56 491.27L-52.03 584.82" stroke="hsl(228.5, 77.2%, 51.5%)" stroke-width="1.5"></path><path d="M-27.56 491.27L132.48 505.28" stroke="hsl(228.5, 77.2%, 51.5%)" stroke-width="1.5"></path><path d="M-27.56 491.27L-63.73 675.92" stroke="hsl(228.5, 77.2%, 51.5%)" stroke-width="1.5"></path><path d="M-27.56 491.27L154.2 567.81" stroke="hsl(228.5, 77.2%, 51.5%)" stroke-width="1.5"></path><path d="M-52.03 584.82L-52.03 584.82" stroke="hsl(228.5, 77.2%, 51.5%)" stroke-width="1.5"></path><path d="M-52.03 584.82L31.73 498.44" stroke="hsl(228.5, 77.2%, 51.5%)" stroke-width="1.5"></path><path d="M-52.03 584.82L61.39 678.69" stroke="hsl(228.5, 77.2%, 51.5%)" stroke-width="1.5"></path><path d="M31.73 498.44L31.73 498.44" stroke="hsl(228.5, 77.2%, 51.5%)" stroke-width="1.5"></path><path d="M31.73 498.44L132.48 505.28" stroke="hsl(228.5, 77.2%, 51.5%)" stroke-width="1.5"></path><path d="M31.73 498.44L154.2 567.81" stroke="hsl(228.5, 77.2%, 51.5%)" stroke-width="1.5"></path><path d="M61.39 678.69L61.39 678.69" stroke="hsl(228.5, 77.2%, 51.5%)" stroke-width="1.5"></path><path d="M61.39 678.69L142.61 681.09" stroke="hsl(228.5, 77.2%, 51.5%)" stroke-width="1.5"></path><path d="M61.39 678.69L154.2 567.81" stroke="hsl(228.5, 77.2%, 51.5%)" stroke-width="1.5"></path><path d="M132.48 505.28L132.48 505.28" stroke="hsl(228.5, 77.2%, 51.5%)" stroke-width="1.5"></path><path d="M132.48 505.28L154.2 567.81" stroke="hsl(228.5, 77.2%, 51.5%)" stroke-width="1.5"></path><path d="M132.48 505.28L208.1 507.35" stroke="hsl(228.5, 77.2%, 51.5%)" stroke-width="1.5"></path><path d="M154.2 567.81L154.2 567.81" stroke="hsl(228.5, 77.2%, 51.5%)" stroke-width="1.5"></path><path d="M142.61 681.09L142.61 681.09" stroke="hsl(228.5, 77.2%, 51.5%)" stroke-width="1.5"></path><path d="M142.61 681.09L154.2 567.81" stroke="hsl(228.5, 77.2%, 51.5%)" stroke-width="1.5"></path><path d="M142.61 681.09L221.83 594.97" stroke="hsl(228.5, 77.2%, 51.5%)" stroke-width="1.5"></path><path d="M142.61 681.09L28.46 567.93" stroke="hsl(228.5, 77.2%, 51.5%)" stroke-width="1.5"></path><path d="M208.1 507.35L208.1 507.35" stroke="hsl(228.5, 77.2%, 51.5%)" stroke-width="1.5"></path><path d="M208.1 507.35L154.2 567.81" stroke="hsl(228.5, 77.2%, 51.5%)" stroke-width="1.5"></path><path d="M208.1 507.35L221.83 594.97" stroke="hsl(228.5, 77.2%, 51.5%)" stroke-width="1.5"></path><path d="M208.1 507.35L297.34 473.82" stroke="hsl(228.5, 77.2%, 51.5%)" stroke-width="1.5"></path><path d="M208.1 507.35L306.33 576.01" stroke="hsl(228.5, 77.2%, 51.5%)" stroke-width="1.5"></path><path d="M221.83 594.97L221.83 594.97" stroke="hsl(228.5, 77.2%, 51.5%)" stroke-width="1.5"></path><path d="M221.83 594.97L154.2 567.81" stroke="hsl(228.5, 77.2%, 51.5%)" stroke-width="1.5"></path><path d="M221.83 594.97L306.33 576.01" stroke="hsl(228.5, 77.2%, 51.5%)" stroke-width="1.5"></path><path d="M308.08 423.35L308.08 423.35" stroke="hsl(228.5, 77.2%, 51.5%)" stroke-width="1.5"></path><path d="M308.08 423.35L297.34 473.82" stroke="hsl(228.5, 77.2%, 51.5%)" stroke-width="1.5"></path><path d="M308.08 423.35L410.09 502.73" stroke="hsl(228.5, 77.2%, 51.5%)" stroke-width="1.5"></path><path d="M297.34 473.82L297.34 473.82" stroke="hsl(228.5, 77.2%, 51.5%)" stroke-width="1.5"></path><path d="M297.34 473.82L306.33 576.01" stroke="hsl(228.5, 77.2%, 51.5%)" stroke-width="1.5"></path><path d="M306.33 576.01L306.33 576.01" stroke="hsl(228.5, 77.2%, 51.5%)" stroke-width="1.5"></path><path d="M306.33 576.01L312.37 671.98" stroke="hsl(228.5, 77.2%, 51.5%)" stroke-width="1.5"></path><path d="M312.37 671.98L312.37 671.98" stroke="hsl(228.5, 77.2%, 51.5%)" stroke-width="1.5"></path><path d="M410.09 502.73L410.09 502.73" stroke="hsl(228.5, 77.2%, 51.5%)" stroke-width="1.5"></path><path d="M507.06 409.21L507.06 409.21" stroke="hsl(228.5, 77.2%, 51.5%)" stroke-width="1.5"></path><path d="M507.06 409.21L514.89 505.73" stroke="hsl(228.5, 77.2%, 51.5%)" stroke-width="1.5"></path><path d="M507.06 409.21L566.89 488.49" stroke="hsl(228.5, 77.2%, 51.5%)" stroke-width="1.5"></path><path d="M507.06 409.21L598.42 322.11" stroke="hsl(228.5, 77.2%, 51.5%)" stroke-width="1.5"></path><path d="M514.89 505.73L514.89 505.73" stroke="hsl(228.5, 77.2%, 51.5%)" stroke-width="1.5"></path><path d="M514.89 505.73L566.89 488.49" stroke="hsl(228.5, 77.2%, 51.5%)" stroke-width="1.5"></path><path d="M514.89 505.73L485.97 589.32" stroke="hsl(228.5, 77.2%, 51.5%)" stroke-width="1.5"></path><path d="M514.89 505.73L410.09 502.73" stroke="hsl(228.5, 77.2%, 51.5%)" stroke-width="1.5"></path><path d="M485.97 589.32L485.97 589.32" stroke="hsl(228.5, 77.2%, 51.5%)" stroke-width="1.5"></path><path d="M485.97 589.32L479.07 680.09" stroke="hsl(228.5, 77.2%, 51.5%)" stroke-width="1.5"></path><path d="M485.97 589.32L410.09 502.73" stroke="hsl(228.5, 77.2%, 51.5%)" stroke-width="1.5"></path><path d="M479.07 680.09L479.07 680.09" stroke="hsl(228.5, 77.2%, 51.5%)" stroke-width="1.5"></path><path d="M479.07 680.09L570.81 677.63" stroke="hsl(228.5, 77.2%, 51.5%)" stroke-width="1.5"></path><path d="M479.07 680.09L382.8 591.86" stroke="hsl(228.5, 77.2%, 51.5%)" stroke-width="1.5"></path><path d="M479.07 680.09L605.73 574.13" stroke="hsl(228.5, 77.2%, 51.5%)" stroke-width="1.5"></path><path d="M600.99 -25.46L600.99 -25.46" stroke="hsl(228.5, 77.2%, 51.5%)" stroke-width="1.5"></path><path d="M600.99 -25.46L601.96 43.92" stroke="hsl(228.5, 77.2%, 51.5%)" stroke-width="1.5"></path><path d="M600.99 -25.46L679.19 -33.54" stroke="hsl(228.5, 77.2%, 51.5%)" stroke-width="1.5"></path><path d="M601.96 43.92L601.96 43.92" stroke="hsl(228.5, 77.2%, 51.5%)" stroke-width="1.5"></path><path d="M601.96 43.92L670.44 51.64" stroke="hsl(228.5, 77.2%, 51.5%)" stroke-width="1.5"></path><path d="M601.96 43.92L679.19 -33.54" stroke="hsl(228.5, 77.2%, 51.5%)" stroke-width="1.5"></path><path d="M574.09 225.45L574.09 225.45" stroke="hsl(228.5, 77.2%, 51.5%)" stroke-width="1.5"></path><path d="M574.09 225.45L598.42 322.11" stroke="hsl(228.5, 77.2%, 51.5%)" stroke-width="1.5"></path><path d="M574.09 225.45L693.03 232.34" stroke="hsl(228.5, 77.2%, 51.5%)" stroke-width="1.5"></path><path d="M598.42 322.11L598.42 322.11" stroke="hsl(228.5, 77.2%, 51.5%)" stroke-width="1.5"></path><path d="M598.42 322.11L680.32 295.99" stroke="hsl(228.5, 77.2%, 51.5%)" stroke-width="1.5"></path><path d="M566.89 488.49L566.89 488.49" stroke="hsl(228.5, 77.2%, 51.5%)" stroke-width="1.5"></path><path d="M605.73 574.13L605.73 574.13" stroke="hsl(228.5, 77.2%, 51.5%)" stroke-width="1.5"></path><path d="M605.73 574.13L566.89 488.49" stroke="hsl(228.5, 77.2%, 51.5%)" stroke-width="1.5"></path><path d="M605.73 574.13L570.81 677.63" stroke="hsl(228.5, 77.2%, 51.5%)" stroke-width="1.5"></path><path d="M605.73 574.13L678.7 492.53" stroke="hsl(228.5, 77.2%, 51.5%)" stroke-width="1.5"></path><path d="M605.73 574.13L514.89 505.73" stroke="hsl(228.5, 77.2%, 51.5%)" stroke-width="1.5"></path><path d="M570.81 677.63L570.81 677.63" stroke="hsl(228.5, 77.2%, 51.5%)" stroke-width="1.5"></path><path d="M570.81 677.63L693.12 674.12" stroke="hsl(228.5, 77.2%, 51.5%)" stroke-width="1.5"></path><path d="M679.19 -33.54L679.19 -33.54" stroke="hsl(228.5, 77.2%, 51.5%)" stroke-width="1.5"></path><path d="M679.19 -33.54L759.8 -26.98" stroke="hsl(228.5, 77.2%, 51.5%)" stroke-width="1.5"></path><path d="M679.19 -33.54L670.44 51.64" stroke="hsl(228.5, 77.2%, 51.5%)" stroke-width="1.5"></path><path d="M670.44 51.64L670.44 51.64" stroke="hsl(228.5, 77.2%, 51.5%)" stroke-width="1.5"></path><path d="M693.03 232.34L693.03 232.34" stroke="hsl(228.5, 77.2%, 51.5%)" stroke-width="1.5"></path><path d="M693.03 232.34L680.32 295.99" stroke="hsl(228.5, 77.2%, 51.5%)" stroke-width="1.5"></path><path d="M693.03 232.34L774.04 219.86" stroke="hsl(228.5, 77.2%, 51.5%)" stroke-width="1.5"></path><path d="M680.32 295.99L680.32 295.99" stroke="hsl(228.5, 77.2%, 51.5%)" stroke-width="1.5"></path><path d="M680.32 295.99L763.27 333.32" stroke="hsl(228.5, 77.2%, 51.5%)" stroke-width="1.5"></path><path d="M680.32 295.99L774.04 219.86" stroke="hsl(228.5, 77.2%, 51.5%)" stroke-width="1.5"></path><path d="M680.32 295.99L687.22 417.63" stroke="hsl(228.5, 77.2%, 51.5%)" stroke-width="1.5"></path><path d="M687.22 417.63L687.22 417.63" stroke="hsl(228.5, 77.2%, 51.5%)" stroke-width="1.5"></path><path d="M687.22 417.63L678.7 492.53" stroke="hsl(228.5, 77.2%, 51.5%)" stroke-width="1.5"></path><path d="M687.22 417.63L781.66 418.92" stroke="hsl(228.5, 77.2%, 51.5%)" stroke-width="1.5"></path><path d="M687.22 417.63L581.66 423.72" stroke="hsl(228.5, 77.2%, 51.5%)" stroke-width="1.5"></path><path d="M687.22 417.63L763.27 333.32" stroke="hsl(228.5, 77.2%, 51.5%)" stroke-width="1.5"></path><path d="M687.22 417.63L786.84 489.23" stroke="hsl(228.5, 77.2%, 51.5%)" stroke-width="1.5"></path><path d="M678.7 492.53L678.7 492.53" stroke="hsl(228.5, 77.2%, 51.5%)" stroke-width="1.5"></path><path d="M678.7 492.53L786.84 489.23" stroke="hsl(228.5, 77.2%, 51.5%)" stroke-width="1.5"></path><path d="M678.7 492.53L566.89 488.49" stroke="hsl(228.5, 77.2%, 51.5%)" stroke-width="1.5"></path><path d="M678.7 492.53L581.66 423.72" stroke="hsl(228.5, 77.2%, 51.5%)" stroke-width="1.5"></path><path d="M693.12 674.12L693.12 674.12" stroke="hsl(228.5, 77.2%, 51.5%)" stroke-width="1.5"></path><path d="M693.12 674.12L605.73 574.13" stroke="hsl(228.5, 77.2%, 51.5%)" stroke-width="1.5"></path><path d="M693.12 674.12L678.7 492.53" stroke="hsl(228.5, 77.2%, 51.5%)" stroke-width="1.5"></path><path d="M693.12 674.12L786.84 489.23" stroke="hsl(228.5, 77.2%, 51.5%)" stroke-width="1.5"></path><path d="M693.12 674.12L479.07 680.09" stroke="hsl(228.5, 77.2%, 51.5%)" stroke-width="1.5"></path><path d="M759.8 -26.98L759.8 -26.98" stroke="hsl(228.5, 77.2%, 51.5%)" stroke-width="1.5"></path><path d="M759.8 -26.98L670.44 51.64" stroke="hsl(228.5, 77.2%, 51.5%)" stroke-width="1.5"></path><path d="M759.8 -26.98L600.99 -25.46" stroke="hsl(228.5, 77.2%, 51.5%)" stroke-width="1.5"></path><path d="M759.8 -26.98L601.96 43.92" stroke="hsl(228.5, 77.2%, 51.5%)" stroke-width="1.5"></path><path d="M759.8 -26.98L756.97 148.83" stroke="hsl(228.5, 77.2%, 51.5%)" stroke-width="1.5"></path><path d="M759.8 -26.98L664.35 147.31" stroke="hsl(228.5, 77.2%, 51.5%)" stroke-width="1.5"></path><path d="M774.04 219.86L774.04 219.86" stroke="hsl(228.5, 77.2%, 51.5%)" stroke-width="1.5"></path><path d="M774.04 219.86L763.27 333.32" stroke="hsl(228.5, 77.2%, 51.5%)" stroke-width="1.5"></path><path d="M763.27 333.32L763.27 333.32" stroke="hsl(228.5, 77.2%, 51.5%)" stroke-width="1.5"></path><path d="M763.27 333.32L781.66 418.92" stroke="hsl(228.5, 77.2%, 51.5%)" stroke-width="1.5"></path><path d="M763.27 333.32L693.03 232.34" stroke="hsl(228.5, 77.2%, 51.5%)" stroke-width="1.5"></path><path d="M763.27 333.32L786.84 489.23" stroke="hsl(228.5, 77.2%, 51.5%)" stroke-width="1.5"></path><path d="M781.66 418.92L781.66 418.92" stroke="hsl(228.5, 77.2%, 51.5%)" stroke-width="1.5"></path><path d="M781.66 418.92L786.84 489.23" stroke="hsl(228.5, 77.2%, 51.5%)" stroke-width="1.5"></path><path d="M786.84 489.23L786.84 489.23" stroke="hsl(228.5, 77.2%, 51.5%)" stroke-width="1.5"></path><circle r="25" cx="-63.73" cy="675.92" fill="url(&quot;#SvgjsRadialGradient1013&quot;)"></circle><circle r="25" cx="28.46" cy="567.93" fill="url(&quot;#SvgjsRadialGradient1013&quot;)"></circle><circle r="25" cx="210.85" cy="669.17" fill="url(&quot;#SvgjsRadialGradient1013&quot;)"></circle><circle r="25" cx="420.3" cy="424.19" fill="url(&quot;#SvgjsRadialGradient1013&quot;)"></circle><circle r="25" cx="382.8" cy="591.86" fill="url(&quot;#SvgjsRadialGradient1013&quot;)"></circle><circle r="25" cx="423.48" cy="687.77" fill="url(&quot;#SvgjsRadialGradient1013&quot;)"></circle><circle r="25" cx="512.69" cy="301.44" fill="url(&quot;#SvgjsRadialGradient1013&quot;)"></circle><circle r="25" cx="581.66" cy="423.72" fill="url(&quot;#SvgjsRadialGradient1013&quot;)"></circle><circle r="25" cx="664.35" cy="147.31" fill="url(&quot;#SvgjsRadialGradient1013&quot;)"></circle><circle r="25" cx="756.97" cy="148.83" fill="url(&quot;#SvgjsRadialGradient1013&quot;)"></circle><circle r="25" cx="783.6" cy="681.49" fill="url(&quot;#SvgjsRadialGradient1013&quot;)"></circle><circle r="5" cx="-27.56" cy="491.27" fill="#8b9ad9"></circle><circle r="5" cx="-52.03" cy="584.82" fill="#8b9ad9"></circle><circle r="5" cx="31.73" cy="498.44" fill="#8b9ad9"></circle><circle r="5" cx="61.39" cy="678.69" fill="#8b9ad9"></circle><circle r="5" cx="132.48" cy="505.28" fill="#8b9ad9"></circle><circle r="5" cx="154.2" cy="567.81" fill="#8b9ad9"></circle><circle r="5" cx="142.61" cy="681.09" fill="#8b9ad9"></circle><circle r="5" cx="208.1" cy="507.35" fill="#8b9ad9"></circle><circle r="5" cx="221.83" cy="594.97" fill="#8b9ad9"></circle><circle r="5" cx="308.08" cy="423.35" fill="#8b9ad9"></circle><circle r="5" cx="297.34" cy="473.82" fill="#8b9ad9"></circle><circle r="5" cx="306.33" cy="576.01" fill="#8b9ad9"></circle><circle r="5" cx="312.37" cy="671.98" fill="#8b9ad9"></circle><circle r="5" cx="410.09" cy="502.73" fill="#8b9ad9"></circle><circle r="5" cx="507.06" cy="409.21" fill="#8b9ad9"></circle><circle r="5" cx="514.89" cy="505.73" fill="#8b9ad9"></circle><circle r="5" cx="485.97" cy="589.32" fill="#8b9ad9"></circle><circle r="5" cx="479.07" cy="680.09" fill="#8b9ad9"></circle><circle r="5" cx="600.99" cy="-25.46" fill="#8b9ad9"></circle><circle r="5" cx="601.96" cy="43.92" fill="#8b9ad9"></circle><circle r="5" cx="574.09" cy="225.45" fill="#8b9ad9"></circle><circle r="5" cx="598.42" cy="322.11" fill="#8b9ad9"></circle><circle r="5" cx="566.89" cy="488.49" fill="#8b9ad9"></circle><circle r="5" cx="605.73" cy="574.13" fill="#8b9ad9"></circle><circle r="5" cx="570.81" cy="677.63" fill="#8b9ad9"></circle><circle r="5" cx="679.19" cy="-33.54" fill="#8b9ad9"></circle><circle r="5" cx="670.44" cy="51.64" fill="#8b9ad9"></circle><circle r="5" cx="693.03" cy="232.34" fill="#8b9ad9"></circle><circle r="5" cx="680.32" cy="295.99" fill="#8b9ad9"></circle><circle r="5" cx="687.22" cy="417.63" fill="#8b9ad9"></circle><circle r="5" cx="678.7" cy="492.53" fill="#8b9ad9"></circle><circle r="5" cx="693.12" cy="674.12" fill="#8b9ad9"></circle><circle r="5" cx="759.8" cy="-26.98" fill="#8b9ad9"></circle><circle r="5" cx="774.04" cy="219.86" fill="#8b9ad9"></circle><circle r="5" cx="763.27" cy="333.32" fill="#8b9ad9"></circle><circle r="5" cx="781.66" cy="418.92" fill="#8b9ad9"></circle><circle r="5" cx="786.84" cy="489.23" fill="#8b9ad9"></circle></g><defs><mask id="SvgjsMask1012"><rect width="720" height="560" fill="#ffffff"></rect></mask><radialGradient id="SvgjsRadialGradient1013"><stop stop-color="#ffffff" offset="0.1"></stop><stop stop-color="#1735b3" offset="0.2"></stop><stop stop-color="rgba(23, 53, 179, 0)" offset="1"></stop></radialGradient></defs></svg>